<svg version="1.1" xmlns="http://www.w3.org/2000/svg" xmlns:xlink="http://www.w3.org/1999/xlink" width="20.1351" height="24.37407" viewBox="0,0,20.1351,24.37407"><g transform="translate(-229.93245,-167.81297)"><g stroke="none" stroke-miterlimit="10"><g><path d="M241.58962,168.87271v-1.05974h1.05974v1.05974z" fill="#000000"/><path d="M243.7091,168.87271v-1.05974h1.05974v1.05974z" fill="#000000"/><path d="M240.52987,169.93244v-1.05974h1.05974v1.05974z" fill="#000000"/><path d="M241.58962,169.93244v-1.05974h1.05974v1.05974z" fill="#ffffff"/><path d="M242.64936,169.93244v-1.05974h1.05974v1.05974z" fill="#000000"/><path d="M243.7091,169.93244v-1.05974h1.05974v1.05974z" fill="#000000"/><path d="M235.23116,170.99219v-1.05974h1.05974v1.05974z" fill="#000000"/><path d="M237.35065,170.99219v-1.05974h1.05974v1.05974z" fill="#000000"/><path d="M240.52987,170.99219v-1.05974h1.05974v1.05974z" fill="#000000"/><path d="M241.58962,170.99219v-1.05974h1.05974v1.05974z" fill="#ffffff"/><path d="M242.64936,170.99219v-1.05974h1.05974v1.05974z" fill="#000000"/><path d="M243.7091,170.99219v-1.05974h1.05974v1.05974z" fill="#000000"/><path d="M234.17142,172.05194v-1.05974h1.05974v1.05974z" fill="#000000"/><path d="M235.23116,172.05194v-1.05974h1.05974v1.05974z" fill="#ffffff"/><path d="M236.2909,172.05194v-1.05974h1.05974v1.05974z" fill="#000000"/><path d="M237.35065,172.05194v-1.05974h1.05974v1.05974z" fill="#000000"/><path d="M240.52987,172.05194v-1.05974h1.05974v1.05974z" fill="#000000"/><path d="M241.58962,172.05194v-1.05974h1.05974v1.05974z" fill="#ffffff"/><path d="M242.64936,172.05194v-1.05974h1.05974v1.05974z" fill="#000000"/><path d="M243.7091,172.05194v-1.05974h1.05974v1.05974z" fill="#000000"/><path d="M234.17142,173.11167v-1.05974h1.05974v1.05974z" fill="#000000"/><path d="M235.23116,173.11167v-1.05974h1.05974v1.05974z" fill="#ffffff"/><path d="M236.2909,173.11167v-1.05974h1.05974v1.05974z" fill="#000000"/><path d="M237.35065,173.11167v-1.05974h1.05974v1.05974z" fill="#000000"/><path d="M240.52987,173.11167v-1.05974h1.05974v1.05974z" fill="#000000"/><path d="M241.58962,173.11167v-1.05974h1.05974v1.05974z" fill="#e0e0e0"/><path d="M242.64936,173.11167v-1.05974h1.05974v1.05974z" fill="#000000"/><path d="M243.7091,173.11167v-1.05974h1.05974v1.05974z" fill="#ffffff"/><path d="M244.76884,173.11167v-1.05974h1.05974v1.05974z" fill="#000000"/><path d="M234.17142,174.17141v-1.05974h1.05974v1.05974z" fill="#000000"/><path d="M235.23116,174.17141v-1.05974h1.05974v1.05974z" fill="#e0e0e0"/><path d="M236.2909,174.17141v-1.05974h1.05974v1.05974z" fill="#000000"/><path d="M237.35065,174.17141v-1.05974h1.05974v1.05974z" fill="#000000"/><path d="M239.47013,174.17141v-1.05974h1.05974v1.05974z" fill="#000000"/><path d="M240.52987,174.17141v-1.05974h1.05974v1.05974z" fill="#ffffff"/><path d="M241.58962,174.17141v-1.05974h1.05974v1.05974z" fill="#000000"/><path d="M242.64936,174.17141v-1.05974h1.05974v1.05974z" fill="#000000"/><path d="M243.7091,174.17141v-1.05974h1.05974v1.05974z" fill="#ffffff"/><path d="M244.76884,174.17141v-1.05974h1.05974v1.05974z" fill="#e0e0e0"/><path d="M245.82858,174.17141v-1.05974h1.05974v1.05974z" fill="#000000"/><path d="M233.11168,175.23116v-1.05974h1.05974v1.05974z" fill="#000000"/><path d="M234.17142,175.23116v-1.05974h1.05974v1.05974z" fill="#ffffff"/><path d="M235.23116,175.23116v-1.05974h1.05974v1.05974z" fill="#000000"/><path d="M236.2909,175.23116v-1.05974h1.05974v1.05974z" fill="#000000"/><path d="M237.35065,175.23116v-1.05974h1.05974v1.05974z" fill="#ffffff"/><path d="M238.41039,175.23116v-1.05974h1.05974v1.05974z" fill="#000000"/><path d="M239.47013,175.23116v-1.05974h1.05974v1.05974z" fill="#000000"/><path d="M240.52987,175.23116v-1.05974h1.05974v1.05974z" fill="#ffffff"/><path d="M241.58962,175.23116v-1.05974h1.05974v1.05974z" fill="#e0e0e0"/><path d="M242.64936,175.23116v-1.05974h1.05974v1.05974z" fill="#000000"/><path d="M243.7091,175.23116v-1.05974h1.05974v1.05974z" fill="#ffffff"/><path d="M244.76884,175.23116v-1.05974h1.05974v1.05974z" fill="#e0e0e0"/><path d="M245.82858,175.23116v-1.05974h1.05974v1.05974z" fill="#000000"/><path d="M233.11168,176.2909v-1.05974h1.05974v1.05974z" fill="#000000"/><path d="M234.17142,176.2909v-1.05974h1.05974v1.05974z" fill="#ffffff"/><path d="M235.23116,176.2909v-1.05974h1.05974v1.05974z" fill="#e0e0e0"/><path d="M236.2909,176.2909v-1.05974h1.05974v1.05974z" fill="#000000"/><path d="M237.35065,176.2909v-1.05974h1.05974v1.05974z" fill="#ffffff"/><path d="M238.41039,176.2909v-1.05974h1.05974v1.05974z" fill="#e0e0e0"/><path d="M239.47013,176.2909v-1.05974h1.05974v1.05974z" fill="#000000"/><path d="M240.52987,176.2909v-1.05974h1.05974v1.05974z" fill="#ffffff"/><path d="M241.58962,176.2909v-1.05974h1.05974v1.05974z" fill="#e0e0e0"/><path d="M242.64936,176.2909v-1.05974h1.05974v1.05974z" fill="#000000"/><path d="M243.7091,176.2909v-1.05974h1.05974v1.05974z" fill="#e0e0e0"/><path d="M244.76884,176.2909v-1.05974h1.05974v1.05974z" fill="#e0e0e0"/><path d="M245.82858,176.2909v-1.05974h1.05974v1.05974z" fill="#000000"/><path d="M233.11168,177.35064v-1.05974h1.05974v1.05974z" fill="#000000"/><path d="M234.17142,177.35064v-1.05974h1.05974v1.05974z" fill="#e0e0e0"/><path d="M235.23116,177.35064v-1.05974h1.05974v1.05974z" fill="#e0e0e0"/><path d="M236.2909,177.35064v-1.05974h1.05974v1.05974z" fill="#000000"/><path d="M237.35065,177.35064v-1.05974h1.05974v1.05974z" fill="#ffffff"/><path d="M238.41039,177.35064v-1.05974h1.05974v1.05974z" fill="#e0e0e0"/><path d="M239.47013,177.35064v-1.05974h1.05974v1.05974z" fill="#000000"/><path d="M240.52987,177.35064v-1.05974h1.05974v1.05974z" fill="#e0e0e0"/><path d="M241.58962,177.35064v-1.05974h1.05974v1.05974z" fill="#e0e0e0"/><path d="M242.64936,177.35064v-1.05974h1.05974v1.05974z" fill="#000000"/><path d="M243.7091,177.35064v-1.05974h1.05974v1.05974z" fill="#000000"/><path d="M244.76884,177.35064v-1.05974h1.05974v1.05974z" fill="#e0e0e0"/><path d="M245.82858,177.35064v-1.05974h1.05974v1.05974z" fill="#000000"/><path d="M234.17142,178.41038v-1.05974h1.05974v1.05974z" fill="#000000"/><path d="M235.23116,178.41038v-1.05974h1.05974v1.05974z" fill="#e0e0e0"/><path d="M236.2909,178.41038v-1.05974h1.05974v1.05974z" fill="#000000"/><path d="M237.35065,178.41038v-1.05974h1.05974v1.05974z" fill="#000000"/><path d="M238.41039,178.41038v-1.05974h1.05974v1.05974z" fill="#e0e0e0"/><path d="M239.47013,178.41038v-1.05974h1.05974v1.05974z" fill="#000000"/><path d="M240.52987,178.41038v-1.05974h1.05974v1.05974z" fill="#000000"/><path d="M241.58962,178.41038v-1.05974h1.05974v1.05974z" fill="#e0e0e0"/><path d="M242.64936,178.41038v-1.05974h1.05974v1.05974z" fill="#000000"/><path d="M243.7091,178.41038v-1.05974h1.05974v1.05974z" fill="#ffffff"/><path d="M244.76884,178.41038v-1.05974h1.05974v1.05974z" fill="#000000"/><path d="M245.82858,178.41038v-1.05974h1.05974v1.05974z" fill="#000000"/><path d="M235.23116,179.47013v-1.05974h1.05974v1.05974z" fill="#000000"/><path d="M236.2909,179.47013v-1.05974h1.05974v1.05974z" fill="#000000"/><path d="M237.35065,179.47013v-1.05974h1.05974v1.05974z" fill="#ffffff"/><path d="M238.41039,179.47013v-1.05974h1.05974v1.05974z" fill="#000000"/><path d="M239.47013,179.47013v-1.05974h1.05974v1.05974z" fill="#000000"/><path d="M241.58962,179.47013v-1.05974h1.05974v1.05974z" fill="#000000"/><path d="M242.64936,179.47013v-1.05974h1.05974v1.05974z" fill="#000000"/><path d="M243.7091,179.47013v-1.05974h1.05974v1.05974z" fill="#ffffff"/><path d="M244.76884,179.47013v-1.05974h1.05974v1.05974z" fill="#ffffff"/><path d="M245.82858,179.47013v-1.05974h1.05974v1.05974z" fill="#000000"/><path d="M236.2909,180.52987v-1.05974h1.05974v1.05974z" fill="#000000"/><path d="M237.35065,180.52987v-1.05974h1.05974v1.05974z" fill="#ffffff"/><path d="M238.41039,180.52987v-1.05974h1.05974v1.05974z" fill="#ffffff"/><path d="M239.47013,180.52987v-1.05974h1.05974v1.05974z" fill="#000000"/><path d="M240.52987,180.52987v-1.05974h1.05974v1.05974z" fill="#000000"/><path d="M242.64936,180.52987v-1.05974h1.05974v1.05974z" fill="#000000"/><path d="M243.7091,180.52987v-1.05974h1.05974v1.05974z" fill="#ffffff"/><path d="M244.76884,180.52987v-1.05974h1.05974v1.05974z" fill="#ffffff"/><path d="M245.82858,180.52987v-1.05974h1.05974v1.05974z" fill="#e0e0e0"/><path d="M246.88833,180.52987v-1.05974h1.05974v1.05974z" fill="#000000"/><path d="M247.94807,180.52987v-1.05974h1.05974v1.05974z" fill="#000000"/><path d="M230.99219,181.58961v-1.05974h1.05974v1.05974z" fill="#000000"/><path d="M232.05194,181.58961v-1.05974h1.05974v1.05974z" fill="#000000"/><path d="M233.11168,181.58961v-1.05974h1.05974v1.05974z" fill="#000000"/><path d="M234.17142,181.58961v-1.05974h1.05974v1.05974z" fill="#000000"/><path d="M235.23116,181.58961v-1.05974h1.05974v1.05974z" fill="#000000"/><path d="M236.2909,181.58961v-1.05974h1.05974v1.05974z" fill="#000000"/><path d="M237.35065,181.58961v-1.05974h1.05974v1.05974z" fill="#e0e0e0"/><path d="M238.41039,181.58961v-1.05974h1.05974v1.05974z" fill="#ffffff"/><path d="M239.47013,181.58961v-1.05974h1.05974v1.05974z" fill="#e0e0e0"/><path d="M240.52987,181.58961v-1.05974h1.05974v1.05974z" fill="#000000"/><path d="M241.58962,181.58961v-1.05974h1.05974v1.05974z" fill="#000000"/><path d="M242.64936,181.58961v-1.05974h1.05974v1.05974z" fill="#000000"/><path d="M243.7091,181.58961v-1.05974h1.05974v1.05974z" fill="#e0e0e0"/><path d="M244.76884,181.58961v-1.05974h1.05974v1.05974z" fill="#ffffff"/><path d="M245.82858,181.58961v-1.05974h1.05974v1.05974z" fill="#e0e0e0"/><path d="M246.88833,181.58961v-1.05974h1.05974v1.05974z" fill="#000000"/><path d="M247.94807,181.58961v-1.05974h1.05974v1.05974z" fill="#ffb74d"/><path d="M249.00781,181.58961v-1.05974h1.05974v1.05974z" fill="#000000"/><path d="M229.93245,182.64935v-1.05974h1.05974v1.05974z" fill="#000000"/><path d="M230.99219,182.64935v-1.05974h1.05974v1.05974z" fill="#ffb74d"/><path d="M232.05194,182.64935v-1.05974h1.05974v1.05974z" fill="#ffb74d"/><path d="M233.11168,182.64935v-1.05974h1.05974v1.05974z" fill="#ffb74d"/><path d="M234.17142,182.64935v-1.05974h1.05974v1.05974z" fill="#ffb74d"/><path d="M235.23116,182.64935v-1.05974h1.05974v1.05974z" fill="#000000"/><path d="M236.2909,182.64935v-1.05974h1.05974v1.05974z" fill="#ffb74d"/><path d="M237.35065,182.64935v-1.05974h1.05974v1.05974z" fill="#000000"/><path d="M238.41039,182.64935v-1.05974h1.05974v1.05974z" fill="#e0e0e0"/><path d="M239.47013,182.64935v-1.05974h1.05974v1.05974z" fill="#e0e0e0"/><path d="M240.52987,182.64935v-1.05974h1.05974v1.05974z" fill="#000000"/><path d="M241.58962,182.64935v-1.05974h1.05974v1.05974z" fill="#ffb74d"/><path d="M242.64936,182.64935v-1.05974h1.05974v1.05974z" fill="#ffb74d"/><path d="M243.7091,182.64935v-1.05974h1.05974v1.05974z" fill="#000000"/><path d="M244.76884,182.64935v-1.05974h1.05974v1.05974z" fill="#e0e0e0"/><path d="M245.82858,182.64935v-1.05974h1.05974v1.05974z" fill="#e0e0e0"/><path d="M246.88833,182.64935v-1.05974h1.05974v1.05974z" fill="#000000"/><path d="M247.94807,182.64935v-1.05974h1.05974v1.05974z" fill="#ffb74d"/><path d="M249.00781,182.64935v-1.05974h1.05974v1.05974z" fill="#000000"/><path d="M229.93245,183.7091v-1.05974h1.05974v1.05974z" fill="#000000"/><path d="M230.99219,183.7091v-1.05974h1.05974v1.05974z" fill="#ffb74d"/><path d="M232.05194,183.7091v-1.05974h1.05974v1.05974z" fill="#ffb74d"/><path d="M233.11168,183.7091v-1.05974h1.05974v1.05974z" fill="#ffb74d"/><path d="M234.17142,183.7091v-1.05974h1.05974v1.05974z" fill="#ffb74d"/><path d="M235.23116,183.7091v-1.05974h1.05974v1.05974z" fill="#000000"/><path d="M236.2909,183.7091v-1.05974h1.05974v1.05974z" fill="#fb8c00"/><path d="M237.35065,183.7091v-1.05974h1.05974v1.05974z" fill="#000000"/><path d="M238.41039,183.7091v-1.05974h1.05974v1.05974z" fill="#000000"/><path d="M239.47013,183.7091v-1.05974h1.05974v1.05974z" fill="#e0e0e0"/><path d="M240.52987,183.7091v-1.05974h1.05974v1.05974z" fill="#000000"/><path d="M241.58962,183.7091v-1.05974h1.05974v1.05974z" fill="#fb8c00"/><path d="M242.64936,183.7091v-1.05974h1.05974v1.05974z" fill="#fb8c00"/><path d="M243.7091,183.7091v-1.05974h1.05974v1.05974z" fill="#000000"/><path d="M244.76884,183.7091v-1.05974h1.05974v1.05974z" fill="#000000"/><path d="M245.82858,183.7091v-1.05974h1.05974v1.05974z" fill="#e0e0e0"/><path d="M246.88833,183.7091v-1.05974h1.05974v1.05974z" fill="#000000"/><path d="M247.94807,183.7091v-1.05974h1.05974v1.05974z" fill="#ffb74d"/><path d="M249.00781,183.7091v-1.05974h1.05974v1.05974z" fill="#000000"/><path d="M229.93245,184.76884v-1.05974h1.05974v1.05974z" fill="#000000"/><path d="M230.99219,184.76884v-1.05974h1.05974v1.05974z" fill="#000000"/><path d="M232.05194,184.76884v-1.05974h1.05974v1.05974z" fill="#ffb74d"/><path d="M233.11168,184.76884v-1.05974h1.05974v1.05974z" fill="#ffb74d"/><path d="M234.17142,184.76884v-1.05974h1.05974v1.05974z" fill="#ffb74d"/><path d="M235.23116,184.76884v-1.05974h1.05974v1.05974z" fill="#000000"/><path d="M236.2909,184.76884v-1.05974h1.05974v1.05974z" fill="#fb8c00"/><path d="M237.35065,184.76884v-1.05974h1.05974v1.05974z" fill="#000000"/><path d="M238.41039,184.76884v-1.05974h1.05974v1.05974z" fill="#fb8c00"/><path d="M239.47013,184.76884v-1.05974h1.05974v1.05974z" fill="#000000"/><path d="M240.52987,184.76884v-1.05974h1.05974v1.05974z" fill="#fb8c00"/><path d="M241.58962,184.76884v-1.05974h1.05974v1.05974z" fill="#ffa726"/><path d="M242.64936,184.76884v-1.05974h1.05974v1.05974z" fill="#fb8c00"/><path d="M243.7091,184.76884v-1.05974h1.05974v1.05974z" fill="#000000"/><path d="M244.76884,184.76884v-1.05974h1.05974v1.05974z" fill="#fb8c00"/><path d="M245.82858,184.76884v-1.05974h1.05974v1.05974z" fill="#000000"/><path d="M246.88833,184.76884v-1.05974h1.05974v1.05974z" fill="#ffb74d"/><path d="M247.94807,184.76884v-1.05974h1.05974v1.05974z" fill="#ffb74d"/><path d="M249.00781,184.76884v-1.05974h1.05974v1.05974z" fill="#000000"/><path d="M229.93245,185.82858v-1.05974h1.05974v1.05974z" fill="#000000"/><path d="M230.99219,185.82858v-1.05974h1.05974v1.05974z" fill="#fb8c00"/><path d="M232.05194,185.82858v-1.05974h1.05974v1.05974z" fill="#000000"/><path d="M233.11168,185.82858v-1.05974h1.05974v1.05974z" fill="#000000"/><path d="M234.17142,185.82858v-1.05974h1.05974v1.05974z" fill="#ffb74d"/><path d="M235.23116,185.82858v-1.05974h1.05974v1.05974z" fill="#000000"/><path d="M236.2909,185.82858v-1.05974h1.05974v1.05974z" fill="#fb8c00"/><path d="M237.35065,185.82858v-1.05974h1.05974v1.05974z" fill="#ffa726"/><path d="M238.41039,185.82858v-1.05974h1.05974v1.05974z" fill="#fb8c00"/><path d="M239.47013,185.82858v-1.05974h1.05974v1.05974z" fill="#ffa726"/><path d="M240.52987,185.82858v-1.05974h1.05974v1.05974z" fill="#fb8c00"/><path d="M241.58962,185.82858v-1.05974h1.05974v1.05974z" fill="#ffa726"/><path d="M242.64936,185.82858v-1.05974h1.05974v1.05974z" fill="#fb8c00"/><path d="M243.7091,185.82858v-1.05974h1.05974v1.05974z" fill="#ffa726"/><path d="M244.76884,185.82858v-1.05974h1.05974v1.05974z" fill="#fb8c00"/><path d="M245.82858,185.82858v-1.05974h1.05974v1.05974z" fill="#000000"/><path d="M246.88833,185.82858v-1.05974h1.05974v1.05974z" fill="#ffb74d"/><path d="M247.94807,185.82858v-1.05974h1.05974v1.05974z" fill="#ffb74d"/><path d="M249.00781,185.82858v-1.05974h1.05974v1.05974z" fill="#000000"/><path d="M230.99219,186.88832v-1.05974h1.05974v1.05974z" fill="#000000"/><path d="M232.05194,186.88832v-1.05974h1.05974v1.05974z" fill="#fb8c00"/><path d="M233.11168,186.88832v-1.05974h1.05974v1.05974z" fill="#fb8c00"/><path d="M234.17142,186.88832v-1.05974h1.05974v1.05974z" fill="#000000"/><path d="M235.23116,186.88832v-1.05974h1.05974v1.05974z" fill="#000000"/><path d="M236.2909,186.88832v-1.05974h1.05974v1.05974z" fill="#ffb74d"/><path d="M237.35065,186.88832v-1.05974h1.05974v1.05974z" fill="#ffb74d"/><path d="M238.41039,186.88832v-1.05974h1.05974v1.05974z" fill="#ffb74d"/><path d="M239.47013,186.88832v-1.05974h1.05974v1.05974z" fill="#ffb74d"/><path d="M240.52987,186.88832v-1.05974h1.05974v1.05974z" fill="#ffb74d"/><path d="M241.58962,186.88832v-1.05974h1.05974v1.05974z" fill="#ffb74d"/><path d="M242.64936,186.88832v-1.05974h1.05974v1.05974z" fill="#ffb74d"/><path d="M243.7091,186.88832v-1.05974h1.05974v1.05974z" fill="#ffb74d"/><path d="M244.76884,186.88832v-1.05974h1.05974v1.05974z" fill="#ffb74d"/><path d="M245.82858,186.88832v-1.05974h1.05974v1.05974z" fill="#000000"/><path d="M246.88833,186.88832v-1.05974h1.05974v1.05974z" fill="#000000"/><path d="M247.94807,186.88832v-1.05974h1.05974v1.05974z" fill="#000000"/><path d="M249.00781,186.88832v-1.05974h1.05974v1.05974z" fill="#000000"/><path d="M230.99219,187.94806v-1.05974h1.05974v1.05974z" fill="#000000"/><path d="M232.05194,187.94806v-1.05974h1.05974v1.05974z" fill="#ffa726"/><path d="M233.11168,187.94806v-1.05974h1.05974v1.05974z" fill="#ffa726"/><path d="M234.17142,187.94806v-1.05974h1.05974v1.05974z" fill="#fb8c00"/><path d="M235.23116,187.94806v-1.05974h1.05974v1.05974z" fill="#fb8c00"/><path d="M236.2909,187.94806v-1.05974h1.05974v1.05974z" fill="#000000"/><path d="M237.35065,187.94806v-1.05974h1.05974v1.05974z" fill="#000000"/><path d="M238.41039,187.94806v-1.05974h1.05974v1.05974z" fill="#000000"/><path d="M239.47013,187.94806v-1.05974h1.05974v1.05974z" fill="#000000"/><path d="M240.52987,187.94806v-1.05974h1.05974v1.05974z" fill="#000000"/><path d="M241.58962,187.94806v-1.05974h1.05974v1.05974z" fill="#000000"/><path d="M242.64936,187.94806v-1.05974h1.05974v1.05974z" fill="#000000"/><path d="M243.7091,187.94806v-1.05974h1.05974v1.05974z" fill="#000000"/><path d="M244.76884,187.94806v-1.05974h1.05974v1.05974z" fill="#000000"/><path d="M245.82858,187.94806v-1.05974h1.05974v1.05974z" fill="#ffa726"/><path d="M246.88833,187.94806v-1.05974h1.05974v1.05974z" fill="#ffa726"/><path d="M247.94807,187.94806v-1.05974h1.05974v1.05974z" fill="#ffa726"/><path d="M249.00781,187.94806v-1.05974h1.05974v1.05974z" fill="#000000"/><path d="M232.05194,189.00781v-1.05974h1.05974v1.05974z" fill="#000000"/><path d="M233.11168,189.00781v-1.05974h1.05974v1.05974z" fill="#fb8c00"/><path d="M234.17142,189.00781v-1.05974h1.05974v1.05974z" fill="#ffa726"/><path d="M235.23116,189.00781v-1.05974h1.05974v1.05974z" fill="#ffa726"/><path d="M236.2909,189.00781v-1.05974h1.05974v1.05974z" fill="#fb8c00"/><path d="M237.35065,189.00781v-1.05974h1.05974v1.05974z" fill="#fb8c00"/><path d="M238.41039,189.00781v-1.05974h1.05974v1.05974z" fill="#fb8c00"/><path d="M239.47013,189.00781v-1.05974h1.05974v1.05974z" fill="#fb8c00"/><path d="M240.52987,189.00781v-1.05974h1.05974v1.05974z" fill="#fb8c00"/><path d="M241.58962,189.00781v-1.05974h1.05974v1.05974z" fill="#fb8c00"/><path d="M242.64936,189.00781v-1.05974h1.05974v1.05974z" fill="#fb8c00"/><path d="M243.7091,189.00781v-1.05974h1.05974v1.05974z" fill="#fb8c00"/><path d="M244.76884,189.00781v-1.05974h1.05974v1.05974z" fill="#fb8c00"/><path d="M245.82858,189.00781v-1.05974h1.05974v1.05974z" fill="#fb8c00"/><path d="M246.88833,189.00781v-1.05974h1.05974v1.05974z" fill="#fb8c00"/><path d="M247.94807,189.00781v-1.05974h1.05974v1.05974z" fill="#fb8c00"/><path d="M249.00781,189.00781v-1.05974h1.05974v1.05974z" fill="#000000"/><path d="M233.11168,190.06755v-1.05974h1.05974v1.05974z" fill="#000000"/><path d="M234.17142,190.06755v-1.05974h1.05974v1.05974z" fill="#fb8c00"/><path d="M235.23116,190.06755v-1.05974h1.05974v1.05974z" fill="#fb8c00"/><path d="M236.2909,190.06755v-1.05974h1.05974v1.05974z" fill="#ffa726"/><path d="M237.35065,190.06755v-1.05974h1.05974v1.05974z" fill="#000000"/><path d="M238.41039,190.06755v-1.05974h1.05974v1.05974z" fill="#ffa726"/><path d="M239.47013,190.06755v-1.05974h1.05974v1.05974z" fill="#ffa726"/><path d="M240.52987,190.06755v-1.05974h1.05974v1.05974z" fill="#000000"/><path d="M241.58962,190.06755v-1.05974h1.05974v1.05974z" fill="#ffa726"/><path d="M242.64936,190.06755v-1.05974h1.05974v1.05974z" fill="#ffa726"/><path d="M243.7091,190.06755v-1.05974h1.05974v1.05974z" fill="#000000"/><path d="M244.76884,190.06755v-1.05974h1.05974v1.05974z" fill="#ffa726"/><path d="M245.82858,190.06755v-1.05974h1.05974v1.05974z" fill="#ffa726"/><path d="M246.88833,190.06755v-1.05974h1.05974v1.05974z" fill="#ffa726"/><path d="M247.94807,190.06755v-1.05974h1.05974v1.05974z" fill="#ffa726"/><path d="M249.00781,190.06755v-1.05974h1.05974v1.05974z" fill="#000000"/><path d="M234.17142,191.12729v-1.05974h1.05974v1.05974z" fill="#000000"/><path d="M235.23116,191.12729v-1.05974h1.05974v1.05974z" fill="#000000"/><path d="M236.2909,191.12729v-1.05974h1.05974v1.05974z" fill="#fb8c00"/><path d="M237.35065,191.12729v-1.05974h1.05974v1.05974z" fill="#fb8c00"/><path d="M238.41039,191.12729v-1.05974h1.05974v1.05974z" fill="#fb8c00"/><path d="M239.47013,191.12729v-1.05974h1.05974v1.05974z" fill="#fb8c00"/><path d="M240.52987,191.12729v-1.05974h1.05974v1.05974z" fill="#fb8c00"/><path d="M241.58962,191.12729v-1.05974h1.05974v1.05974z" fill="#fb8c00"/><path d="M242.64936,191.12729v-1.05974h1.05974v1.05974z" fill="#fb8c00"/><path d="M243.7091,191.12729v-1.05974h1.05974v1.05974z" fill="#fb8c00"/><path d="M244.76884,191.12729v-1.05974h1.05974v1.05974z" fill="#fb8c00"/><path d="M245.82858,191.12729v-1.05974h1.05974v1.05974z" fill="#fb8c00"/><path d="M246.88833,191.12729v-1.05974h1.05974v1.05974z" fill="#fb8c00"/><path d="M247.94807,191.12729v-1.05974h1.05974v1.05974z" fill="#000000"/><path d="M236.2909,192.18703v-1.05974h1.05974v1.05974z" fill="#000000"/><path d="M237.35065,192.18703v-1.05974h1.05974v1.05974z" fill="#000000"/><path d="M238.41039,192.18703v-1.05974h1.05974v1.05974z" fill="#000000"/><path d="M239.47013,192.18703v-1.05974h1.05974v1.05974z" fill="#000000"/><path d="M240.52987,192.18703v-1.05974h1.05974v1.05974z" fill="#000000"/><path d="M241.58962,192.18703v-1.05974h1.05974v1.05974z" fill="#000000"/><path d="M242.64936,192.18703v-1.05974h1.05974v1.05974z" fill="#000000"/><path d="M243.7091,192.18703v-1.05974h1.05974v1.05974z" fill="#000000"/><path d="M244.76884,192.18703v-1.05974h1.05974v1.05974z" fill="#000000"/><path d="M245.82858,192.18703v-1.05974h1.05974v1.05974z" fill="#000000"/><path d="M246.88833,192.18703v-1.05974h1.05974v1.05974z" fill="#000000"/></g></g></g></svg>