<svg version="1.1" xmlns="http://www.w3.org/2000/svg" xmlns:xlink="http://www.w3.org/1999/xlink" width="21.17364" height="24.91021" viewBox="0,0,21.17364,24.91021"><g transform="translate(-229.41318,-167.5449)"><g stroke="none" stroke-miterlimit="10"><g><path d="M238.13174,168.79041v-1.24551h1.24551v1.24551z" fill="#000000"/><path d="M239.37725,168.79041v-1.24551h1.24551v1.24551z" fill="#000000"/><path d="M240.62275,168.79041v-1.24551h1.24551v1.24551z" fill="#000000"/><path d="M236.88621,170.03591v-1.24551h1.24551v1.24551z" fill="#000000"/><path d="M238.13174,170.03591v-1.24551h1.24551v1.24551z" fill="#bf360c"/><path d="M239.37725,170.03591v-1.24551h1.24551v1.24551z" fill="#bf360c"/><path d="M240.62275,170.03591v-1.24551h1.24551v1.24551z" fill="#bf360c"/><path d="M241.86826,170.03591v-1.24551h1.24551v1.24551z" fill="#000000"/><path d="M243.11377,170.03591v-1.24551h1.24551v1.24551z" fill="#000000"/><path d="M231.90419,171.28143v-1.24551h1.24551v1.24551z" fill="#000000"/><path d="M233.1497,171.28143v-1.24551h1.24551v1.24551z" fill="#000000"/><path d="M236.88621,171.28143v-1.24551h1.24551v1.24551z" fill="#000000"/><path d="M238.13174,171.28143v-1.24551h1.24551v1.24551z" fill="#9b2804"/><path d="M239.37725,171.28143v-1.24551h1.24551v1.24551z" fill="#bf360c"/><path d="M240.62275,171.28143v-1.24551h1.24551v1.24551z" fill="#9b2804"/><path d="M241.86826,171.28143v-1.24551h1.24551v1.24551z" fill="#000000"/><path d="M230.65869,172.52694v-1.24551h1.24551v1.24551z" fill="#000000"/><path d="M231.90419,172.52694v-1.24551h1.24551v1.24551z" fill="#ffffff"/><path d="M233.1497,172.52694v-1.24551h1.24551v1.24551z" fill="#e0e0e0"/><path d="M234.3952,172.52694v-1.24551h1.24551v1.24551z" fill="#000000"/><path d="M238.13174,172.52694v-1.24551h1.24551v1.24551z" fill="#000000"/><path d="M239.37725,172.52694v-1.24551h1.24551v1.24551z" fill="#9b2804"/><path d="M240.62275,172.52694v-1.24551h1.24551v1.24551z" fill="#000000"/><path d="M230.65869,173.77245v-1.24551h1.24551v1.24551z" fill="#000000"/><path d="M231.90419,173.77245v-1.24551h1.24551v1.24551z" fill="#ffffff"/><path d="M233.1497,173.77245v-1.24551h1.24551v1.24551z" fill="#e0e0e0"/><path d="M234.3952,173.77245v-1.24551h1.24551v1.24551z" fill="#000000"/><path d="M236.88621,173.77245v-1.24551h1.24551v1.24551z" fill="#000000"/><path d="M238.13174,173.77245v-1.24551h1.24551v1.24551z" fill="#000000"/><path d="M239.37725,173.77245v-1.24551h1.24551v1.24551z" fill="#000000"/><path d="M240.62275,173.77245v-1.24551h1.24551v1.24551z" fill="#000000"/><path d="M241.86826,173.77245v-1.24551h1.24551v1.24551z" fill="#000000"/><path d="M230.65869,175.01796v-1.24551h1.24551v1.24551z" fill="#000000"/><path d="M231.90419,175.01796v-1.24551h1.24551v1.24551z" fill="#ffffff"/><path d="M233.1497,175.01796v-1.24551h1.24551v1.24551z" fill="#e0e0e0"/><path d="M234.3952,175.01796v-1.24551h1.24551v1.24551z" fill="#000000"/><path d="M235.64072,175.01796v-1.24551h1.24551v1.24551z" fill="#000000"/><path d="M236.88621,175.01796v-1.24551h1.24551v1.24551z" fill="#ffffff"/><path d="M238.13174,175.01796v-1.24551h1.24551v1.24551z" fill="#e0e0e0"/><path d="M239.37725,175.01796v-1.24551h1.24551v1.24551z" fill="#ffffff"/><path d="M240.62275,175.01796v-1.24551h1.24551v1.24551z" fill="#e0e0e0"/><path d="M241.86826,175.01796v-1.24551h1.24551v1.24551z" fill="#e0e0e0"/><path d="M243.11377,175.01796v-1.24551h1.24551v1.24551z" fill="#000000"/><path d="M230.65869,176.26348v-1.24551h1.24551v1.24551z" fill="#000000"/><path d="M231.90419,176.26348v-1.24551h1.24551v1.24551z" fill="#ffffff"/><path d="M233.1497,176.26348v-1.24551h1.24551v1.24551z" fill="#e0e0e0"/><path d="M234.3952,176.26348v-1.24551h1.24551v1.24551z" fill="#000000"/><path d="M235.64072,176.26348v-1.24551h1.24551v1.24551z" fill="#ffffff"/><path d="M236.88621,176.26348v-1.24551h1.24551v1.24551z" fill="#000000"/><path d="M238.13174,176.26348v-1.24551h1.24551v1.24551z" fill="#000000"/><path d="M239.37725,176.26348v-1.24551h1.24551v1.24551z" fill="#000000"/><path d="M240.62275,176.26348v-1.24551h1.24551v1.24551z" fill="#000000"/><path d="M241.86826,176.26348v-1.24551h1.24551v1.24551z" fill="#000000"/><path d="M243.11377,176.26348v-1.24551h1.24551v1.24551z" fill="#e0e0e0"/><path d="M244.35928,176.26348v-1.24551h1.24551v1.24551z" fill="#000000"/><path d="M230.65869,177.50898v-1.24551h1.24551v1.24551z" fill="#000000"/><path d="M231.90419,177.50898v-1.24551h1.24551v1.24551z" fill="#ffffff"/><path d="M233.1497,177.50898v-1.24551h1.24551v1.24551z" fill="#e0e0e0"/><path d="M234.3952,177.50898v-1.24551h1.24551v1.24551z" fill="#000000"/><path d="M235.64072,177.50898v-1.24551h1.24551v1.24551z" fill="#000000"/><path d="M236.88621,177.50898v-1.24551h1.24551v1.24551z" fill="#e0e0e0"/><path d="M238.13174,177.50898v-1.24551h1.24551v1.24551z" fill="#000000"/><path d="M239.37725,177.50898v-1.24551h1.24551v1.24551z" fill="#e0e0e0"/><path d="M240.62275,177.50898v-1.24551h1.24551v1.24551z" fill="#000000"/><path d="M241.86826,177.50898v-1.24551h1.24551v1.24551z" fill="#e0e0e0"/><path d="M243.11377,177.50898v-1.24551h1.24551v1.24551z" fill="#000000"/><path d="M244.35928,177.50898v-1.24551h1.24551v1.24551z" fill="#000000"/><path d="M230.65869,178.7545v-1.24551h1.24551v1.24551z" fill="#000000"/><path d="M231.90419,178.7545v-1.24551h1.24551v1.24551z" fill="#ffffff"/><path d="M233.1497,178.7545v-1.24551h1.24551v1.24551z" fill="#e0e0e0"/><path d="M234.3952,178.7545v-1.24551h1.24551v1.24551z" fill="#000000"/><path d="M235.64072,178.7545v-1.24551h1.24551v1.24551z" fill="#000000"/><path d="M236.88621,178.7545v-1.24551h1.24551v1.24551z" fill="#e0e0e0"/><path d="M238.13174,178.7545v-1.24551h1.24551v1.24551z" fill="#000000"/><path d="M239.37725,178.7545v-1.24551h1.24551v1.24551z" fill="#e0e0e0"/><path d="M240.62275,178.7545v-1.24551h1.24551v1.24551z" fill="#000000"/><path d="M241.86826,178.7545v-1.24551h1.24551v1.24551z" fill="#e0e0e0"/><path d="M243.11377,178.7545v-1.24551h1.24551v1.24551z" fill="#000000"/><path d="M244.35928,178.7545v-1.24551h1.24551v1.24551z" fill="#000000"/><path d="M230.65869,180.00001v-1.24551h1.24551v1.24551z" fill="#000000"/><path d="M231.90419,180.00001v-1.24551h1.24551v1.24551z" fill="#ffffff"/><path d="M233.1497,180.00001v-1.24551h1.24551v1.24551z" fill="#e0e0e0"/><path d="M234.3952,180.00001v-1.24551h1.24551v1.24551z" fill="#000000"/><path d="M235.64072,180.00001v-1.24551h1.24551v1.24551z" fill="#ffffff"/><path d="M236.88621,180.00001v-1.24551h1.24551v1.24551z" fill="#000000"/><path d="M238.13174,180.00001v-1.24551h1.24551v1.24551z" fill="#000000"/><path d="M239.37725,180.00001v-1.24551h1.24551v1.24551z" fill="#000000"/><path d="M240.62275,180.00001v-1.24551h1.24551v1.24551z" fill="#000000"/><path d="M241.86826,180.00001v-1.24551h1.24551v1.24551z" fill="#000000"/><path d="M243.11377,180.00001v-1.24551h1.24551v1.24551z" fill="#e0e0e0"/><path d="M244.35928,180.00001v-1.24551h1.24551v1.24551z" fill="#000000"/><path d="M230.65869,181.24553v-1.24551h1.24551v1.24551z" fill="#000000"/><path d="M231.90419,181.24553v-1.24551h1.24551v1.24551z" fill="#000000"/><path d="M233.1497,181.24553v-1.24551h1.24551v1.24551z" fill="#000000"/><path d="M234.3952,181.24553v-1.24551h1.24551v1.24551z" fill="#000000"/><path d="M235.64072,181.24553v-1.24551h1.24551v1.24551z" fill="#000000"/><path d="M236.88621,181.24553v-1.24551h1.24551v1.24551z" fill="#000000"/><path d="M238.13174,181.24553v-1.24551h1.24551v1.24551z" fill="#000000"/><path d="M239.37725,181.24553v-1.24551h1.24551v1.24551z" fill="#000000"/><path d="M240.62275,181.24553v-1.24551h1.24551v1.24551z" fill="#000000"/><path d="M241.86826,181.24553v-1.24551h1.24551v1.24551z" fill="#000000"/><path d="M243.11377,181.24553v-1.24551h1.24551v1.24551z" fill="#000000"/><path d="M244.35928,181.24553v-1.24551h1.24551v1.24551z" fill="#000000"/><path d="M229.41318,182.49102v-1.24551h1.24551v1.24551z" fill="#000000"/><path d="M230.65869,182.49102v-1.24551h1.24551v1.24551z" fill="#bf360c"/><path d="M231.90419,182.49102v-1.24551h1.24551v1.24551z" fill="#bf360c"/><path d="M233.1497,182.49102v-1.24551h1.24551v1.24551z" fill="#bf360c"/><path d="M234.3952,182.49102v-1.24551h1.24551v1.24551z" fill="#000000"/><path d="M235.64072,182.49102v-1.24551h1.24551v1.24551z" fill="#ffedb5"/><path d="M236.88621,182.49102v-1.24551h1.24551v1.24551z" fill="#000000"/><path d="M238.13174,182.49102v-1.24551h1.24551v1.24551z" fill="#ffedb5"/><path d="M239.37725,182.49102v-1.24551h1.24551v1.24551z" fill="#ffedb5"/><path d="M240.62275,182.49102v-1.24551h1.24551v1.24551z" fill="#ffedb5"/><path d="M241.86826,182.49102v-1.24551h1.24551v1.24551z" fill="#000000"/><path d="M243.11377,182.49102v-1.24551h1.24551v1.24551z" fill="#ffedb5"/><path d="M244.35928,182.49102v-1.24551h1.24551v1.24551z" fill="#000000"/><path d="M230.65869,183.73654v-1.24551h1.24551v1.24551z" fill="#000000"/><path d="M231.90419,183.73654v-1.24551h1.24551v1.24551z" fill="#000000"/><path d="M233.1497,183.73654v-1.24551h1.24551v1.24551z" fill="#000000"/><path d="M234.3952,183.73654v-1.24551h1.24551v1.24551z" fill="#000000"/><path d="M235.64072,183.73654v-1.24551h1.24551v1.24551z" fill="#000000"/><path d="M236.88621,183.73654v-1.24551h1.24551v1.24551z" fill="#ffedb5"/><path d="M238.13174,183.73654v-1.24551h1.24551v1.24551z" fill="#ffedb5"/><path d="M239.37725,183.73654v-1.24551h1.24551v1.24551z" fill="#ffedb5"/><path d="M240.62275,183.73654v-1.24551h1.24551v1.24551z" fill="#ffedb5"/><path d="M241.86826,183.73654v-1.24551h1.24551v1.24551z" fill="#ffedb5"/><path d="M243.11377,183.73654v-1.24551h1.24551v1.24551z" fill="#000000"/><path d="M244.35928,183.73654v-1.24551h1.24551v1.24551z" fill="#000000"/><path d="M245.6048,183.73654v-1.24551h1.24551v1.24551z" fill="#000000"/><path d="M246.8503,183.73654v-1.24551h1.24551v1.24551z" fill="#000000"/><path d="M248.09581,183.73654v-1.24551h1.24551v1.24551z" fill="#000000"/><path d="M249.34131,183.73654v-1.24551h1.24551v1.24551z" fill="#000000"/><path d="M230.65869,184.98204v-1.24551h1.24551v1.24551z" fill="#000000"/><path d="M231.90419,184.98204v-1.24551h1.24551v1.24551z" fill="#e0e0e0"/><path d="M233.1497,184.98204v-1.24551h1.24551v1.24551z" fill="#e0e0e0"/><path d="M234.3952,184.98204v-1.24551h1.24551v1.24551z" fill="#000000"/><path d="M235.64072,184.98204v-1.24551h1.24551v1.24551z" fill="#ffffff"/><path d="M236.88621,184.98204v-1.24551h1.24551v1.24551z" fill="#000000"/><path d="M238.13174,184.98204v-1.24551h1.24551v1.24551z" fill="#000000"/><path d="M239.37725,184.98204v-1.24551h1.24551v1.24551z" fill="#000000"/><path d="M240.62275,184.98204v-1.24551h1.24551v1.24551z" fill="#000000"/><path d="M241.86826,184.98204v-1.24551h1.24551v1.24551z" fill="#000000"/><path d="M243.11377,184.98204v-1.24551h1.24551v1.24551z" fill="#000000"/><path d="M244.35928,184.98204v-1.24551h1.24551v1.24551z" fill="#ffffff"/><path d="M245.6048,184.98204v-1.24551h1.24551v1.24551z" fill="#ffffff"/><path d="M246.8503,184.98204v-1.24551h1.24551v1.24551z" fill="#e0e0e0"/><path d="M248.09581,184.98204v-1.24551h1.24551v1.24551z" fill="#e0e0e0"/><path d="M249.34131,184.98204v-1.24551h1.24551v1.24551z" fill="#000000"/><path d="M230.65869,186.22755v-1.24551h1.24551v1.24551z" fill="#000000"/><path d="M231.90419,186.22755v-1.24551h1.24551v1.24551z" fill="#e0e0e0"/><path d="M233.1497,186.22755v-1.24551h1.24551v1.24551z" fill="#bdbdbd"/><path d="M234.3952,186.22755v-1.24551h1.24551v1.24551z" fill="#000000"/><path d="M235.64072,186.22755v-1.24551h1.24551v1.24551z" fill="#ffffff"/><path d="M236.88621,186.22755v-1.24551h1.24551v1.24551z" fill="#ffffff"/><path d="M238.13174,186.22755v-1.24551h1.24551v1.24551z" fill="#e0e0e0"/><path d="M239.37725,186.22755v-1.24551h1.24551v1.24551z" fill="#ffffff"/><path d="M240.62275,186.22755v-1.24551h1.24551v1.24551z" fill="#e0e0e0"/><path d="M241.86826,186.22755v-1.24551h1.24551v1.24551z" fill="#e0e0e0"/><path d="M243.11377,186.22755v-1.24551h1.24551v1.24551z" fill="#000000"/><path d="M244.35928,186.22755v-1.24551h1.24551v1.24551z" fill="#ffffff"/><path d="M245.6048,186.22755v-1.24551h1.24551v1.24551z" fill="#ffffff"/><path d="M246.8503,186.22755v-1.24551h1.24551v1.24551z" fill="#e0e0e0"/><path d="M248.09581,186.22755v-1.24551h1.24551v1.24551z" fill="#e0e0e0"/><path d="M249.34131,186.22755v-1.24551h1.24551v1.24551z" fill="#000000"/><path d="M231.90419,187.47306v-1.24551h1.24551v1.24551z" fill="#000000"/><path d="M233.1497,187.47306v-1.24551h1.24551v1.24551z" fill="#000000"/><path d="M234.3952,187.47306v-1.24551h1.24551v1.24551z" fill="#000000"/><path d="M235.64072,187.47306v-1.24551h1.24551v1.24551z" fill="#ffffff"/><path d="M236.88621,187.47306v-1.24551h1.24551v1.24551z" fill="#ffffff"/><path d="M238.13174,187.47306v-1.24551h1.24551v1.24551z" fill="#e0e0e0"/><path d="M239.37725,187.47306v-1.24551h1.24551v1.24551z" fill="#ffffff"/><path d="M240.62275,187.47306v-1.24551h1.24551v1.24551z" fill="#e0e0e0"/><path d="M241.86826,187.47306v-1.24551h1.24551v1.24551z" fill="#e0e0e0"/><path d="M243.11377,187.47306v-1.24551h1.24551v1.24551z" fill="#000000"/><path d="M244.35928,187.47306v-1.24551h1.24551v1.24551z" fill="#ffffff"/><path d="M245.6048,187.47306v-1.24551h1.24551v1.24551z" fill="#ffffff"/><path d="M246.8503,187.47306v-1.24551h1.24551v1.24551z" fill="#e0e0e0"/><path d="M248.09581,187.47306v-1.24551h1.24551v1.24551z" fill="#e0e0e0"/><path d="M249.34131,187.47306v-1.24551h1.24551v1.24551z" fill="#000000"/><path d="M233.1497,188.71857v-1.24551h1.24551v1.24551z" fill="#000000"/><path d="M234.3952,188.71857v-1.24551h1.24551v1.24551z" fill="#bf360c"/><path d="M235.64072,188.71857v-1.24551h1.24551v1.24551z" fill="#000000"/><path d="M236.88621,188.71857v-1.24551h1.24551v1.24551z" fill="#000000"/><path d="M238.13174,188.71857v-1.24551h1.24551v1.24551z" fill="#000000"/><path d="M239.37725,188.71857v-1.24551h1.24551v1.24551z" fill="#000000"/><path d="M240.62275,188.71857v-1.24551h1.24551v1.24551z" fill="#000000"/><path d="M241.86826,188.71857v-1.24551h1.24551v1.24551z" fill="#000000"/><path d="M243.11377,188.71857v-1.24551h1.24551v1.24551z" fill="#000000"/><path d="M244.35928,188.71857v-1.24551h1.24551v1.24551z" fill="#000000"/><path d="M245.6048,188.71857v-1.24551h1.24551v1.24551z" fill="#ffffff"/><path d="M246.8503,188.71857v-1.24551h1.24551v1.24551z" fill="#e0e0e0"/><path d="M248.09581,188.71857v-1.24551h1.24551v1.24551z" fill="#000000"/><path d="M233.1497,189.96409v-1.24551h1.24551v1.24551z" fill="#000000"/><path d="M234.3952,189.96409v-1.24551h1.24551v1.24551z" fill="#bf360c"/><path d="M235.64072,189.96409v-1.24551h1.24551v1.24551z" fill="#000000"/><path d="M236.88621,189.96409v-1.24551h1.24551v1.24551z" fill="#e0e0e0"/><path d="M238.13174,189.96409v-1.24551h1.24551v1.24551z" fill="#e0e0e0"/><path d="M239.37725,189.96409v-1.24551h1.24551v1.24551z" fill="#000000"/><path d="M240.62275,189.96409v-1.24551h1.24551v1.24551z" fill="#e0e0e0"/><path d="M241.86826,189.96409v-1.24551h1.24551v1.24551z" fill="#e0e0e0"/><path d="M243.11377,189.96409v-1.24551h1.24551v1.24551z" fill="#000000"/><path d="M244.35928,189.96409v-1.24551h1.24551v1.24551z" fill="#bf360c"/><path d="M245.6048,189.96409v-1.24551h1.24551v1.24551z" fill="#000000"/><path d="M246.8503,189.96409v-1.24551h1.24551v1.24551z" fill="#000000"/><path d="M233.1497,191.20959v-1.24551h1.24551v1.24551z" fill="#000000"/><path d="M234.3952,191.20959v-1.24551h1.24551v1.24551z" fill="#bf360c"/><path d="M235.64072,191.20959v-1.24551h1.24551v1.24551z" fill="#000000"/><path d="M236.88621,191.20959v-1.24551h1.24551v1.24551z" fill="#bdbdbd"/><path d="M238.13174,191.20959v-1.24551h1.24551v1.24551z" fill="#bdbdbd"/><path d="M239.37725,191.20959v-1.24551h1.24551v1.24551z" fill="#000000"/><path d="M240.62275,191.20959v-1.24551h1.24551v1.24551z" fill="#bdbdbd"/><path d="M241.86826,191.20959v-1.24551h1.24551v1.24551z" fill="#000000"/><path d="M243.11377,191.20959v-1.24551h1.24551v1.24551z" fill="#bf360c"/><path d="M244.35928,191.20959v-1.24551h1.24551v1.24551z" fill="#bf360c"/><path d="M245.6048,191.20959v-1.24551h1.24551v1.24551z" fill="#000000"/><path d="M233.1497,192.45511v-1.24551h1.24551v1.24551z" fill="#000000"/><path d="M234.3952,192.45511v-1.24551h1.24551v1.24551z" fill="#000000"/><path d="M235.64072,192.45511v-1.24551h1.24551v1.24551z" fill="#000000"/><path d="M236.88621,192.45511v-1.24551h1.24551v1.24551z" fill="#000000"/><path d="M238.13174,192.45511v-1.24551h1.24551v1.24551z" fill="#bdbdbd"/><path d="M239.37725,192.45511v-1.24551h1.24551v1.24551z" fill="#000000"/><path d="M240.62275,192.45511v-1.24551h1.24551v1.24551z" fill="#000000"/><path d="M241.86826,192.45511v-1.24551h1.24551v1.24551z" fill="#000000"/><path d="M243.11377,192.45511v-1.24551h1.24551v1.24551z" fill="#000000"/><path d="M244.35928,192.45511v-1.24551h1.24551v1.24551z" fill="#000000"/><path d="M245.6048,192.45511v-1.24551h1.24551v1.24551z" fill="#000000"/></g></g></g></svg>